<?xml version="1.0" encoding="UTF-8"?>
<!DOCTYPE svg PUBLIC "-//W3C//DTD SVG 1.1//EN" "http://www.w3.org/Graphics/SVG/1.1/DTD/svg11.dtd">
<svg xmlns="http://www.w3.org/2000/svg" version="1.1" width="512px" height="512px" style="shape-rendering:geometricPrecision; text-rendering:geometricPrecision; image-rendering:optimizeQuality; fill-rule:evenodd; clip-rule:evenodd" xmlns:xlink="http://www.w3.org/1999/xlink">
<g><path style="opacity:0.973" fill="#2CCAD3" d="M 241.5,32.5 C 272.23,32.0229 302.896,32.5229 333.5,34C 340.391,36.6229 344.891,41.4563 347,48.5C 348.375,59.1112 348.875,69.7779 348.5,80.5C 343.167,80.5 337.833,80.5 332.5,80.5C 332.666,71.8269 332.5,63.1603 332,54.5C 330.878,52.3762 329.378,50.5429 327.5,49C 299.833,48.3333 272.167,48.3333 244.5,49C 242.622,50.5429 241.122,52.3762 240,54.5C 239.5,63.1603 239.334,71.8269 239.5,80.5C 234.167,80.5 228.833,80.5 223.5,80.5C 223.334,71.1607 223.5,61.8274 224,52.5C 225.916,42.293 231.75,35.6264 241.5,32.5 Z"/></g>
<g><path style="opacity:0.985" fill="#2CCAD3" d="M 179.5,91.5 C 251.878,91.0126 324.211,91.5126 396.5,93C 400.49,94.9904 402.99,98.1571 404,102.5C 404.911,116.88 404.578,131.214 403,145.5C 397.938,161.118 387.438,170.952 371.5,175C 355.536,176.366 339.536,176.866 323.5,176.5C 323.723,169.445 320.723,164.279 314.5,161C 295.5,160.333 276.5,160.333 257.5,161C 251.267,164.301 248.267,169.467 248.5,176.5C 232.464,176.866 216.464,176.366 200.5,175C 184.519,170.941 174.019,161.108 169,145.5C 167.922,137.551 167.422,129.551 167.5,121.5C 167.387,114.092 167.887,106.759 169,99.5C 171.587,95.4753 175.087,92.8087 179.5,91.5 Z"/></g>
<g><path style="opacity:0.991" fill="#2CCAD3" d="M 167.5,167.5 C 176.087,176.97 186.754,183.136 199.5,186C 215.798,187.369 232.131,187.869 248.5,187.5C 248.583,194.17 251.583,199.003 257.5,202C 266.943,203.112 276.443,203.612 286,203.5C 295.557,203.612 305.057,203.112 314.5,202C 320.417,199.003 323.417,194.17 323.5,187.5C 339.869,187.869 356.202,187.369 372.5,186C 385.083,183.384 395.416,177.218 403.5,167.5C 404.667,194.494 404.833,221.494 404,248.5C 402.99,252.843 400.49,256.01 396.5,258C 324.536,259.651 252.536,259.984 180.5,259C 173.906,258.407 169.739,254.907 168,248.5C 167.5,221.502 167.333,194.502 167.5,167.5 Z"/></g>
<g><path style="opacity:0.978" fill="#2CCAD3" d="M 260.5,171.5 C 277.503,171.333 294.503,171.5 311.5,172C 312.642,178.084 312.809,184.251 312,190.5C 311.5,191 311,191.5 310.5,192C 294.167,192.667 277.833,192.667 261.5,192C 261,191.5 260.5,191 260,190.5C 259.21,184.085 259.376,177.752 260.5,171.5 Z"/></g>
<g><path style="opacity:0.993" fill="#2CCAD3" d="M 446.5,292.5 C 471.349,294.557 482.182,307.891 479,332.5C 476.78,339.101 472.947,344.601 467.5,349C 402.833,382.667 338.167,416.333 273.5,450C 265.276,452.902 256.943,453.236 248.5,451C 221.805,445.461 195.139,439.794 168.5,434C 160.555,432.417 153.222,433.75 146.5,438C 145.056,438.781 143.723,438.614 142.5,437.5C 126.032,406.063 109.698,374.563 93.5,343C 93.6448,342.228 93.9781,341.561 94.5,341C 114.991,330.588 135.324,319.922 155.5,309C 159.814,306.34 164.481,304.673 169.5,304C 206.862,304.885 244.195,306.552 281.5,309C 300.656,316.31 307.656,329.976 302.5,350C 298.183,360.333 290.516,366.666 279.5,369C 255.478,368.999 231.478,368.166 207.5,366.5C 199.904,366.73 197.904,370.063 201.5,376.5C 204.443,377.244 207.443,377.744 210.5,378C 233.825,379.304 257.158,379.971 280.5,380C 292.142,377.517 301.475,371.517 308.5,362C 351.657,339.922 394.657,317.588 437.5,295C 440.628,294.159 443.628,293.325 446.5,292.5 Z"/></g>
<g><path style="opacity:0.99" fill="#2CCAD3" d="M 65.5,320.5 C 67.4835,320.383 69.1502,321.05 70.5,322.5C 95.6667,370.833 120.833,419.167 146,467.5C 146.896,470.025 146.396,472.192 144.5,474C 133.218,480.224 121.718,486.058 110,491.5C 107.679,490.513 106.013,488.846 105,486.5C 80.3333,439.167 55.6667,391.833 31,344.5C 30.1041,341.975 30.6041,339.808 32.5,338C 43.8784,332.647 54.8784,326.814 65.5,320.5 Z"/></g>
</svg>
