<?xml version="1.0" encoding="UTF-8"?>
<!DOCTYPE svg PUBLIC "-//W3C//DTD SVG 1.1//EN" "http://www.w3.org/Graphics/SVG/1.1/DTD/svg11.dtd">
<svg xmlns="http://www.w3.org/2000/svg" version="1.1" width="512px" height="512px" style="shape-rendering:geometricPrecision; text-rendering:geometricPrecision; image-rendering:optimizeQuality; fill-rule:evenodd; clip-rule:evenodd" xmlns:xlink="http://www.w3.org/1999/xlink">
<g><path style="opacity:0.963" fill="#2CCAD3" d="M 251.5,10.5 C 256.232,10.3776 260.898,10.8776 265.5,12C 332.578,37.1369 399.578,62.4702 466.5,88C 474.361,92.2359 477.195,98.7359 475,107.5C 473.939,110.562 472.106,113.062 469.5,115C 447.461,123.402 425.461,131.902 403.5,140.5C 402.667,171.161 402.167,201.828 402,232.5C 401.107,240.794 397.273,247.294 390.5,252C 356.707,270.868 320.374,281.202 281.5,283C 237.039,286.526 193.706,281.192 151.5,267C 139.779,262.64 128.779,256.973 118.5,250C 113.715,245.931 110.881,240.764 110,234.5C 109.833,203.161 109.333,171.828 108.5,140.5C 98.6182,136.429 88.6182,132.762 78.5,129.5C 78.167,149.844 78.5004,170.178 79.5,190.5C 86.7337,193.564 91.2337,198.897 93,206.5C 93.6667,225.833 93.6667,245.167 93,264.5C 91.4176,271.747 86.9176,275.914 79.5,277C 73.4422,277.739 67.4422,277.406 61.5,276C 57.6119,273.778 54.7786,270.612 53,266.5C 52.3333,246.167 52.3333,225.833 53,205.5C 55.1985,198.441 59.6985,193.441 66.5,190.5C 67.8333,168.5 67.8333,146.5 66.5,124.5C 59.8721,121.902 53.2054,119.402 46.5,117C 36.8324,112.154 33.9991,104.654 38,94.5C 39.7648,91.527 42.2648,89.3604 45.5,88C 114.176,61.8352 182.843,36.0019 251.5,10.5 Z M 252.5,21.5 C 257.333,21.3746 262,22.2079 266.5,24C 330.422,48.5297 394.422,72.863 458.5,97C 462.77,97.9117 464.604,100.412 464,104.5C 399.707,129.711 335.207,154.545 270.5,179C 263.804,182.141 256.804,183.141 249.5,182C 198.578,162.47 147.578,143.137 96.5,124C 150.941,118.823 205.274,112.99 259.5,106.5C 262.402,102.607 261.736,99.4401 257.5,97C 196.47,102.636 135.47,108.803 74.5,115.5C 65.4496,112.221 56.6163,108.554 48,104.5C 47.2571,102.559 47.4238,100.726 48.5,99C 116.649,73.2331 184.649,47.3998 252.5,21.5 Z M 70.5,200.5 C 76.4017,200.24 80.2351,202.907 82,208.5C 82.6667,226.5 82.6667,244.5 82,262.5C 80.0284,265.889 77.0284,267.222 73,266.5C 69.4794,266.917 66.4794,265.917 64,263.5C 63.3333,244.833 63.3333,226.167 64,207.5C 65.425,204.394 67.5916,202.06 70.5,200.5 Z"/></g>
<g><path style="opacity:0.929" fill="#2CCAD3" d="M 38.5,292.5 C 112.52,301.668 186.853,306.001 261.5,305.5C 315.936,305.822 370.27,303.655 424.5,299C 437.874,297.662 451.207,295.995 464.5,294C 478.778,291.929 488.278,297.762 493,311.5C 503.403,341.285 504.07,371.285 495,401.5C 492.491,409.352 488.325,416.185 482.5,422C 478.969,424.177 475.136,425.344 471,425.5C 416.113,417.719 360.947,413.719 305.5,413.5C 304.71,420.205 302.71,426.538 299.5,432.5C 308.3,447.935 316.967,463.435 325.5,479C 324.897,482.439 322.897,484.272 319.5,484.5C 313.42,483.48 307.42,482.146 301.5,480.5C 299.241,486.776 297.075,493.109 295,499.5C 291.304,502.425 287.971,502.092 285,498.5C 277.5,485.5 270,472.5 262.5,459.5C 257.95,458.2 253.45,458.2 249,459.5C 241.211,473.58 233.045,487.414 224.5,501C 221.653,501.944 219.153,501.444 217,499.5C 215.053,492.99 212.72,486.657 210,480.5C 204.29,482.218 198.457,483.552 192.5,484.5C 186.545,483.287 185.045,479.954 188,474.5C 195.789,460.42 203.955,446.586 212.5,433C 208.991,426.974 206.991,420.474 206.5,413.5C 150.98,414.89 95.6462,418.89 40.5,425.5C 36.9332,425.589 33.5999,424.755 30.5,423C 22.6441,415.795 17.4775,406.962 15,396.5C 7.68548,366.619 9.35214,337.285 20,308.5C 23.6446,300.007 29.8112,294.674 38.5,292.5 Z M 36.5,304.5 C 40.594,303.705 43.7607,305.038 46,308.5C 50.0944,314.612 52.9277,321.279 54.5,328.5C 48.8624,329.33 43.1958,329.83 37.5,330C 35.718,332.243 35.218,334.743 36,337.5C 41.1418,351.954 41.8085,366.62 38,381.5C 36.6667,384.167 35.3333,386.833 34,389.5C 31.3676,392.192 29.0342,391.859 27,388.5C 25.0728,385.052 23.7394,381.385 23,377.5C 19.6339,356.3 21.6339,335.634 29,315.5C 31.0156,311.458 33.5156,307.791 36.5,304.5 Z M 465.5,304.5 C 474.045,302.854 479.545,306.187 482,314.5C 494.096,346.613 493.096,378.279 479,409.5C 477.091,412.414 474.425,414.081 471,414.5C 449.936,411.138 428.77,408.638 407.5,407C 373.518,404.788 339.518,402.955 305.5,401.5C 303.381,389.592 297.881,379.592 289,371.5C 288.5,353.17 288.333,334.836 288.5,316.5C 337.61,316.134 386.61,313.634 435.5,309C 445.714,307.977 455.714,306.477 465.5,304.5 Z M 58.5,306.5 C 113.034,311.974 167.701,315.307 222.5,316.5C 222.667,335.17 222.5,353.836 222,372.5C 213.399,380.702 208.232,390.702 206.5,402.5C 156.939,404.098 107.606,407.098 58.5,411.5C 65.8737,394.797 69.207,377.297 68.5,359C 69.092,340.714 65.7587,323.214 58.5,306.5 Z M 48.5,341.5 C 50.9479,340.527 53.6146,340.194 56.5,340.5C 58.196,357.591 57.5293,374.591 54.5,391.5C 51.8333,391.5 49.1667,391.5 46.5,391.5C 51.1812,378.238 52.6812,364.571 51,350.5C 50.5939,347.258 49.7605,344.258 48.5,341.5 Z M 254.5,369.5 C 285.747,374.014 298.247,391.681 292,422.5C 281.662,443.417 265.162,450.917 242.5,445C 223.264,436.367 215.097,421.534 218,400.5C 223.695,382.289 235.862,371.955 254.5,369.5 Z M 29.5,402.5 C 36.5079,402.334 43.5079,402.5 50.5,403C 43.0159,418.463 36.0159,418.297 29.5,402.5 Z"/></g>
<g><path style="opacity:0.962" fill="#2CCAD3" d="M 249.5,377.5 C 267.249,375.783 279.415,383.117 286,399.5C 289.766,419.139 282.266,432.306 263.5,439C 237.493,441.323 224.66,429.49 225,403.5C 228.277,390.06 236.444,381.394 249.5,377.5 Z"/></g>
</svg>
